<?xml version="1.0" encoding="utf-8"?>
<svg version="1.1" x="0" y="0" width="164" height="91" viewBox="0, 0, 164, 91" xmlns="http://www.w3.org/2000/svg">
  <g id="Layer_1">
    <g>
      <path d="M22.264,25.013 C33.331,20.429 39.229,-0.475 26.687,1.504 C14.617,3.41 0.621,20.435 13.364,24.989 C16.772,26.205 19.758,26.051 22.264,25.013" fill="#81888B"/>
      <path d="M22.264,25.013 C33.331,20.429 39.229,-0.475 26.687,1.504 C14.617,3.41 0.621,20.435 13.364,24.989 C16.772,26.205 19.758,26.051 22.264,25.013 z" fill-opacity="0" stroke="#1A1919" stroke-width="1.417" stroke-linecap="round" stroke-linejoin="round"/>
    </g>
    <path d="M106.517,84.722 C106.517,89.448 117.347,87.908 118.798,87.263 C122.609,85.569 121.55,83.028 122.609,80.91 C122.714,80.702 131.571,65.478 129.387,70.747 C127.63,74.98 128.651,60.931 122.895,60.56 C115.254,60.066 119.009,74.665 116.257,77.946 C113.294,77.946 111.599,77.522 109.905,78.792 C106.845,81.089 106.517,80.91 106.517,84.722" fill="#F4C49B"/>
    <path d="M106.517,84.722 C106.517,89.448 117.347,87.908 118.798,87.263 C122.609,85.569 121.55,83.028 122.609,80.91 C122.714,80.702 131.571,65.478 129.387,70.747 C127.63,74.98 128.651,60.931 122.895,60.56 C115.254,60.066 119.009,74.665 116.257,77.946 C113.294,77.946 111.599,77.522 109.905,78.792 C106.845,81.089 106.517,80.91 106.517,84.722 z M106.517,82.604 C107.426,80.349 110.222,80.276 112.022,80.487 M106.94,85.992 C107.364,83.452 109.656,83.31 111.599,83.452" fill-opacity="0" stroke="#1A1919" stroke-width="1.417" stroke-linecap="round" stroke-linejoin="round"/>
    <path d="M114.986,79.64 C116.195,79.016 115.674,79.833 116.64,77.755" fill="#F4C49B"/>
    <path d="M114.986,79.64 C116.195,79.016 115.674,79.833 116.64,77.755" fill-opacity="0" stroke="#1A1919" stroke-width="1.417" stroke-linecap="round" stroke-linejoin="round"/>
    <path d="M35.514,83.005 C33.806,83.714 31.139,84.737 28.593,84.405 C27.126,84.213 22.938,79.767 25.417,76.464 C27.322,73.923 30.816,72.335 34.31,72.97 C34.628,70.747 34.811,71.427 34.31,68.524 C33.52,63.939 30.076,58.667 32.864,55.839 C38.004,50.624 41.05,62.3 41.648,65.823 C42.829,72.79 42.413,80.141 35.514,83.005" fill="#F4C49B"/>
    <path d="M35.514,83.005 C33.806,83.714 31.139,84.737 28.593,84.405 C27.126,84.213 22.938,79.767 25.417,76.464 C27.322,73.923 30.816,72.335 34.31,72.97 C34.628,70.747 34.811,71.427 34.31,68.524 C33.52,63.939 30.076,58.667 32.864,55.839 C38.004,50.624 41.05,62.3 41.648,65.823 C42.829,72.79 42.413,80.141 35.514,83.005 z M24.94,78.21 C25.431,76.112 27.798,75.636 29.704,76.146 M26.369,82.499 C26.353,79.958 28.387,79.148 30.711,80.064" fill-opacity="0" stroke="#1A1919" stroke-width="1.417" stroke-linecap="round" stroke-linejoin="round"/>
    <path d="M34.628,71.224 C34.628,72.412 34.969,74.11 34.639,75.005" fill="#F4C49B"/>
    <path d="M34.628,71.224 C34.628,72.412 34.969,74.11 34.639,75.005" fill-opacity="0" stroke="#1A1919" stroke-width="1.417" stroke-linecap="round" stroke-linejoin="round"/>
    <g>
      <path d="M51.169,7.763 C48.563,4.105 43.109,2.517 38.334,1.717 C33.556,0.917 29.459,0.905 25.204,4.258 C22.588,6.317 19.928,10.051 16.522,11.669 C13.73,12.993 9.426,11.2 6.672,12.939 C-0.309,17.35 -1.123,26.78 4.03,31.361 C7.842,34.749 15.465,36.019 18.006,34.325 C20.389,35.755 23.511,36.442 26.051,36.442 C28.169,40.679 27.268,46.233 27.957,51.054 C28.593,55.5 31.133,59.947 33.352,62.488 C34.774,64.116 37.813,67.064 38.332,69.472 C39.126,73.15 40.027,74.558 39.392,77.735 C35.898,79.321 33.357,80.276 32.722,82.817 C31.861,86.261 34.628,91.075 41.932,88.851 C44.376,88.108 48.343,86.475 48.921,83.769 C49.427,81.406 47.061,79.71 47.65,77.099 C48.901,71.561 47.65,73.923 50.19,68.206 C54.003,70.747 58.975,72.653 63.532,72.653 C75.011,72.653 79.501,73.554 90.847,71.594 C94.444,70.974 98.012,69.081 108.212,66.935 C112.869,69.899 115.835,74.771 124.727,75.829 C128.995,76.335 135.315,72.017 137.01,72.441 C143.479,74.057 141.985,75.829 143.89,79.64 C139.972,79.64 136.796,81.546 136.796,85.992 C136.796,88.589 138.849,89.876 141.667,90.229 C145.054,90.65 153.1,88.956 153.948,84.722 C154.304,82.956 150.449,75.332 149.925,73.288 C149.268,70.722 149.196,67.374 148.019,65.028 C145.947,60.903 143.836,62.84 141.503,57.424 C139.444,52.642 140.079,54.23 138.95,44.132 C140.821,55.077 144.221,57.169 146.749,59.313 C151.163,63.055 157.224,65.116 162.821,65.735 C155.116,62.052 151.491,57.339 148.444,50.841 C147.769,49.405 143.531,41.788 142.938,41.102 C138.454,35.899 136.245,35.153 128.962,34.749 C122.94,34.416 102.455,37.925 96.352,38.562 C84.897,39.757 72.242,40.273 60.778,38.562 C54.806,37.669 50.667,27.8 50.508,20.564 C50.392,15.265 54.869,12.954 51.169,7.763" fill="#81888B"/>
      <path d="M51.169,7.763 C48.563,4.105 43.109,2.517 38.334,1.717 C33.556,0.917 29.459,0.905 25.204,4.258 C22.588,6.317 19.928,10.051 16.522,11.669 C13.73,12.993 9.426,11.2 6.672,12.939 C-0.309,17.35 -1.123,26.78 4.03,31.361 C7.842,34.749 15.465,36.019 18.006,34.325 C20.389,35.755 23.511,36.442 26.051,36.442 C28.169,40.679 27.268,46.233 27.957,51.054 C28.593,55.5 31.133,59.947 33.352,62.488 C34.774,64.116 37.813,67.064 38.332,69.472 C39.126,73.15 40.027,74.558 39.392,77.735 C35.898,79.321 33.357,80.276 32.722,82.817 C31.861,86.261 34.628,91.075 41.932,88.851 C44.376,88.108 48.343,86.475 48.921,83.769 C49.427,81.406 47.061,79.71 47.65,77.099 C48.901,71.561 47.65,73.923 50.19,68.206 C54.003,70.747 58.975,72.653 63.532,72.653 C75.011,72.653 79.501,73.554 90.847,71.594 C94.444,70.974 98.012,69.081 108.212,66.935 C112.869,69.899 115.835,74.771 124.727,75.829 C128.995,76.335 135.315,72.017 137.01,72.441 C143.479,74.057 141.985,75.829 143.89,79.64 C139.972,79.64 136.796,81.546 136.796,85.992 C136.796,88.589 138.849,89.876 141.667,90.229 C145.054,90.65 153.1,88.956 153.948,84.722 C154.304,82.956 150.449,75.332 149.925,73.288 C149.268,70.722 149.196,67.374 148.019,65.028 C145.947,60.903 143.836,62.84 141.503,57.424 C139.444,52.642 140.079,54.23 138.95,44.132 C140.821,55.077 144.221,57.169 146.749,59.313 C151.163,63.055 157.224,65.116 162.821,65.735 C155.116,62.052 151.491,57.339 148.444,50.841 C147.769,49.405 143.531,41.788 142.938,41.102 C138.454,35.899 136.245,35.153 128.962,34.749 C122.94,34.416 102.455,37.925 96.352,38.562 C84.897,39.757 72.242,40.273 60.778,38.562 C54.806,37.669 50.667,27.8 50.508,20.564 C50.392,15.265 54.869,12.954 51.169,7.763 z" fill-opacity="0" stroke="#1A1919" stroke-width="1.417" stroke-linecap="round" stroke-linejoin="round"/>
      <path d="M46.836,36.36 C47.728,38.04 35.944,50.04 34.424,51.059 C34.21,49.238 32.916,47.958 32.975,45.933 C30.684,46.859 28.915,49.062 27.793,51.187 C27.448,47.184 27.047,43.214 27.014,39.191 C27.008,38.335 27.098,37.508 26.782,36.768 C27.442,36.525 28.324,36.882 28.926,36.582 C29.4,36.347 29.746,35.705 30.196,35.375 C33.34,33.066 44.64,32.227 46.836,36.36" fill="#F4C49B"/>
      <path d="M48.442,81.546 C50.588,86.41 39.756,92.655 34.639,87.755 C28.696,82.062 34.136,81.898 36.846,79.037 C40.037,75.674 39.505,72.385 37.923,68.277 C39.239,69.975 40.263,72.013 42.091,73.226 C42.19,70.935 42.887,68.55 45.472,68.694 C46.829,68.771 47.877,69.288 49.769,67.782 C46.802,72.864 47.227,78.792 48.442,81.546" fill="#F4C49B"/>
      <path d="M136.032,85.338 C136.021,81.718 141.225,79.722 143.784,78.792 C142.815,74.726 136.347,73.064 139.591,68.821 C140.032,68.244 144.747,71.296 145.478,71.594 C145.707,70.735 147.174,69.054 148.255,69.132 C151.552,74.427 156.697,85.204 150.985,88.111 C147.433,89.918 136.059,91.544 136.032,85.338" fill="#F4C49B"/>
      <path d="M26.452,36.505 C22.437,35.63 21.389,36.255 18.39,34.255 C5.89,37.505 -5.11,27.255 5.89,13.005 C9.39,14.255 15.313,20.173 21.46,19.782 C25.012,19.558 26.226,18.497 29.85,19.898 C34.499,21.696 41.676,25.786 40.574,31.645 C39.005,39.997 31.947,37.708 26.452,36.505" fill="#F4C49B"/>
      <path d="M51.169,7.763 C48.563,4.105 43.109,2.517 38.334,1.717 C33.556,0.917 29.459,0.905 25.204,4.258 C22.588,6.317 19.928,10.051 16.522,11.669 C13.73,12.993 9.426,11.2 6.672,12.939 C-0.309,17.35 -1.123,26.78 4.03,31.361 C7.842,34.749 15.465,36.019 18.006,34.325 C21.639,36.005 23.511,36.442 26.051,36.442 C28.169,40.679 27.268,46.233 27.957,51.054 C28.593,55.5 31.133,59.947 33.352,62.488 C34.774,64.116 37.297,67.237 38.332,69.472 C39.389,71.755 39.389,75.005 39.392,77.735 C35.898,79.321 33.357,80.276 32.722,82.817 C31.861,86.261 34.628,91.075 41.932,88.851 C44.376,88.108 48.343,86.475 48.921,83.769 C49.427,81.406 47.154,79.73 47.65,77.099 C48.139,74.505 48.889,72.255 50.19,68.206 C54.003,70.747 58.975,72.653 63.532,72.653 C75.011,72.653 79.501,73.554 90.847,71.594 C94.444,70.974 98.012,69.081 108.212,66.935 C112.869,69.899 115.835,74.771 124.727,75.829 C128.995,76.335 135.315,72.017 137.01,72.441 C143.479,74.057 141.985,75.829 143.89,79.64 C139.972,79.64 136.796,81.546 136.796,85.992 C136.796,88.589 138.849,89.876 141.667,90.229 C145.054,90.65 153.1,88.956 153.948,84.722 C154.304,82.956 150.449,75.332 149.925,73.288 C149.268,70.722 149.196,67.374 148.019,65.028 C145.947,60.903 143.836,62.84 141.503,57.424 C139.444,52.642 140.079,54.23 138.95,44.132 C140.821,55.077 144.221,57.169 146.749,59.313 C151.163,63.055 157.224,65.116 162.821,65.735 C155.116,62.052 151.491,57.339 148.444,50.841 C147.769,49.405 143.531,41.788 142.938,41.102 C138.454,35.899 136.245,35.153 128.962,34.749 C122.94,34.416 102.455,37.925 96.352,38.562 C84.897,39.757 72.242,40.273 60.778,38.562 C54.806,37.669 50.667,27.8 50.508,20.564 C50.392,15.265 54.869,12.954 51.169,7.763 z" fill-opacity="0" stroke="#1A1919" stroke-width="1.417" stroke-linecap="round" stroke-linejoin="round"/>
    </g>
    <path d="M6.995,13.152 C9.795,10.993 13.771,13.574 13.252,16.414 C12.78,18.989 9.324,19.503 7.842,18.655 C6.032,17.622 5.409,14.374 6.995,13.152" fill="#97857F"/>
    <path d="M6.995,13.152 C9.795,10.993 13.771,13.574 13.252,16.414 C12.78,18.989 9.324,19.503 7.842,18.655 C6.032,17.622 5.409,14.374 6.995,13.152 z M24.889,36.38 C30.64,36.88 35.368,37.291 40.45,35.173" fill-opacity="0" stroke="#1A1919" stroke-width="1.417" stroke-linecap="round" stroke-linejoin="round"/>
    <path d="M44.897,3.41 C54.638,7.222 57.179,16.538 57.179,21.196 C57.181,26.519 56.122,28.616 54.003,34.325 C50.888,42.716 41.991,45.976 37.486,43.431 C27.745,37.926 37.91,25.644 39.604,20.139 C40.945,15.78 40.306,11.857 40.027,10.186" fill="#81888B"/>
    <path d="M44.897,3.41 C54.638,7.222 57.179,16.538 57.179,21.196 C57.181,26.519 56.122,28.616 54.003,34.325 C50.888,42.716 41.991,45.976 37.486,43.431 C27.745,37.926 37.91,25.644 39.604,20.139 C40.945,15.78 40.306,11.857 40.027,10.186" fill-opacity="0" stroke="#1A1919" stroke-width="1.417" stroke-linecap="round" stroke-linejoin="round"/>
    <path d="M24.568,9.128 C26.512,10.527 23.838,13.202 22.453,11.032 C21.868,10.12 23.267,8.191 24.568,9.128" fill="#1A1919"/>
    <path d="M34.522,15.267 C37.576,15.628 37.578,11.569 34.522,12.091 C33.286,12.304 33.178,15.108 34.522,15.267" fill="#1A1919"/>
    <path d="M18.39,34.005 C20.889,32.38 22.663,26.701 22.028,25.644 M39.389,76.755 C39.389,78.503 39.889,78.505 39.392,79.64 M33.039,84.405 C33.953,82.779 35.373,81.626 37.168,81.864 M34.946,88.534 C34.979,86.465 36.732,85.168 38.756,85.145 M137.01,84.509 C137.856,83.028 140.608,81.968 141.878,82.394 M137.856,88.111 C138.332,85.67 141.442,84.734 143.362,85.78 M142.938,77.099 C143.784,79.218 143.784,79.853 144.419,81.546" fill-opacity="0" stroke="#1A1919" stroke-width="1.417" stroke-linecap="round" stroke-linejoin="round"/>
  </g>
  <text style="fill: rgb(255, 119, 0); font-family: Arial, sans-serif; font-size: 20px; white-space: pre;" x="73.547" y="15.096" dx="-8.293" dy="12.452">dachsurl</text>
  <text style="white-space: pre; fill: rgb(51, 51, 51); font-family: Arial, sans-serif; font-size: 3.5px;" x="81.716" y="26.209"><tspan x="81.71600341796875" dy="1em">​</tspan></text>
</svg>